<svg width="44" height="44" viewBox="0 0 44 44" fill="none" xmlns="http://www.w3.org/2000/svg">
<path d="M32.0434 21.0435H11.9565C11.4282 21.0435 11 21.4717 11 22C11 22.5282 11.4282 22.9565 11.9565 22.9565H32.0434C32.5717 22.9565 33 22.5282 33 22C33 21.4717 32.5717 21.0435 32.0434 21.0435Z" fill="#1D1F24"/>
<path d="M11.9565 16.2609H32.0434C32.5717 16.2609 33 15.8326 33 15.3043C33 14.7761 32.5717 14.3478 32.0434 14.3478H11.9565C11.4282 14.3478 11 14.7761 11 15.3043C11 15.8326 11.4282 16.2609 11.9565 16.2609Z" fill="#1D1F24"/>
<path d="M32.0434 27.7391H11.9565C11.4282 27.7391 11 28.1674 11 28.6957C11 29.2239 11.4282 29.6522 11.9565 29.6522H32.0434C32.5717 29.6522 33 29.2239 33 28.6957C33 28.1674 32.5717 27.7391 32.0434 27.7391Z" fill="#1D1F24"/>
</svg>
