<svg width="13" height="13" viewBox="0 0 13 13" fill="none" xmlns="http://www.w3.org/2000/svg">
<path d="M7.365 2.255L8.245 4.015C8.365 4.26 8.685 4.495 8.955 4.54L10.55 4.805C11.57 4.975 11.81 5.715 11.075 6.445L9.835 7.685C9.625 7.895 9.51 8.3 9.575 8.59L9.93 10.125C10.21 11.34 9.565 11.81 8.49 11.175L6.995 10.29C6.725 10.13 6.28 10.13 6.005 10.29L4.51 11.175C3.44 11.81 2.79 11.335 3.07 10.125L3.425 8.59C3.49 8.3 3.375 7.895 3.165 7.685L1.925 6.445C1.195 5.715 1.43 4.975 2.45 4.805L4.045 4.54C4.31 4.495 4.63 4.26 4.75 4.015L5.63 2.255C6.11 1.3 6.89 1.3 7.365 2.255Z" fill="#827BEB" stroke="#827BEB" stroke-linecap="round" stroke-linejoin="round"/>
</svg>
