<svg width="98" height="18" viewBox="0 0 98 18" fill="none" xmlns="http://www.w3.org/2000/svg">
<path d="M9.252 1.868H9.552V1.568H9.252V1.868ZM9.252 4.1V4.4H9.552V4.1H9.252ZM6.3 4.1V3.8H6V4.1H6.3ZM6.3 14V14.3H6.6V14H6.3ZM3.51 14H3.21V14.3H3.51V14ZM3.51 4.1H3.81V3.8H3.51V4.1ZM0.54 4.1H0.24V4.4H0.54V4.1ZM0.54 1.868V1.568H0.24V1.868H0.54ZM8.952 1.868V4.1H9.552V1.868H8.952ZM9.252 3.8H6.3V4.4H9.252V3.8ZM6 4.1V14H6.6V4.1H6ZM6.3 13.7H3.51V14.3H6.3V13.7ZM3.81 14V4.1H3.21V14H3.81ZM3.51 3.8H0.54V4.4H3.51V3.8ZM0.84 4.1V1.868H0.24V4.1H0.84ZM0.54 2.168H9.252V1.568H0.54V2.168ZM11.591 12.866L11.3683 13.067L11.3697 13.0686L11.591 12.866ZM11.645 6.098L11.8673 6.29951L11.8686 6.29804L11.645 6.098ZM18.179 12.812L17.9538 12.6138L17.9536 12.614L18.179 12.812ZM13.589 7.538L13.3301 7.38645L13.589 7.538ZM13.589 11.372L13.3284 11.5209L13.3329 11.5282L13.589 11.372ZM16.199 11.39L15.9401 11.2384L15.9389 11.2405L16.199 11.39ZM14.903 13.844C13.5378 13.844 12.5225 13.4392 11.8123 12.6634L11.3697 13.0686C12.2196 13.9968 13.4122 14.444 14.903 14.444V13.844ZM11.8137 12.665C11.0911 11.8646 10.721 10.836 10.721 9.554H10.121C10.121 10.96 10.5309 12.1394 11.3683 13.067L11.8137 12.665ZM10.721 9.554C10.721 8.21212 11.109 7.13579 11.8673 6.29951L11.4228 5.89649C10.549 6.86021 10.121 8.08788 10.121 9.554H10.721ZM11.8686 6.29804C12.6212 5.45693 13.6221 5.03 14.903 5.03V4.43C13.472 4.43 12.3009 4.91506 11.4214 5.89796L11.8686 6.29804ZM14.903 5.03C16.2527 5.03 17.2616 5.44456 17.973 6.2435L18.4211 5.8445C17.5725 4.89144 16.3853 4.43 14.903 4.43V5.03ZM17.973 6.2435C18.6965 7.05607 19.067 8.09735 19.067 9.392H19.667C19.667 7.97465 19.2575 6.78393 18.4211 5.8445L17.973 6.2435ZM19.067 9.392C19.067 10.7108 18.6904 11.7768 17.9538 12.6138L18.4042 13.0102C19.2516 12.0472 19.667 10.8332 19.667 9.392H19.067ZM17.9536 12.614C17.2414 13.4249 16.2385 13.844 14.903 13.844V14.444C16.3755 14.444 17.5567 13.9751 18.4044 13.01L17.9536 12.614ZM14.885 6.5C14.2038 6.5 13.6726 6.80133 13.3301 7.38645L13.8479 7.68955C14.0814 7.29067 14.4142 7.1 14.885 7.1V6.5ZM13.3301 7.38645C13.0071 7.93831 12.857 8.63154 12.857 9.446H13.457C13.457 8.70046 13.595 8.12169 13.8479 7.68955L13.3301 7.38645ZM12.857 9.446C12.857 10.2609 13.0072 10.9586 13.3285 11.5208L13.8495 11.2232C13.5948 10.7774 13.457 10.1911 13.457 9.446H12.857ZM13.3329 11.5282C13.6887 12.1117 14.231 12.41 14.921 12.41V11.81C14.435 11.81 14.0893 11.6163 13.8452 11.2158L13.3329 11.5282ZM14.921 12.41C15.5991 12.41 16.127 12.1172 16.4591 11.5395L15.9389 11.2405C15.7191 11.6228 15.395 11.81 14.921 11.81V12.41ZM16.4579 11.5416C16.781 10.9897 16.931 10.2965 16.931 9.482H16.331C16.331 10.2275 16.1931 10.8063 15.9401 11.2384L16.4579 11.5416ZM16.931 9.482C16.931 8.56503 16.7835 7.82538 16.4459 7.30683C16.0938 6.76597 15.5575 6.5 14.885 6.5V7.1C15.3765 7.1 15.7132 7.28102 15.9431 7.63417C16.1875 8.00962 16.331 8.61097 16.331 9.482H16.931ZM26.7359 11.21L26.5011 11.0233H26.5011L26.7359 11.21ZM26.6819 7.574L26.4636 7.77983L26.4667 7.78304L26.6819 7.574ZM23.8559 7.61L23.629 7.41373L23.6259 7.41733L23.8559 7.61ZM23.8739 11.246L23.6444 11.4393L23.647 11.4422L23.8739 11.246ZM27.2939 1.274V0.974H26.9939V1.274H27.2939ZM29.9219 1.274H30.2219V0.974H29.9219V1.274ZM29.9219 14V14.3H30.2219V14H29.9219ZM27.2939 14H26.9939V14.3H27.2939V14ZM27.2939 12.578H27.5939V11.4949L27.0367 12.4237L27.2939 12.578ZM21.6959 12.722L21.4578 12.9045L21.4593 12.9064L21.6959 12.722ZM21.7499 6.008L21.5268 5.80749L21.7499 6.008ZM27.2939 6.278L27.0388 6.43591L27.5939 7.33257V6.278H27.2939ZM25.2779 12.212C25.969 12.212 26.5416 11.9366 26.9708 11.3967L26.5011 11.0233C26.1862 11.4194 25.7868 11.612 25.2779 11.612V12.212ZM26.9708 11.3967C27.3963 10.8613 27.5939 10.165 27.5939 9.338H26.9939C26.9939 10.071 26.8195 10.6227 26.5011 11.0233L26.9708 11.3967ZM27.5939 9.338C27.5939 8.52758 27.374 7.85588 26.8971 7.36496L26.4667 7.78304C26.8058 8.13212 26.9939 8.63642 26.9939 9.338H27.5939ZM26.9002 7.3682C26.4504 6.89117 25.8987 6.644 25.2599 6.644V7.244C25.7251 7.244 26.1214 7.41683 26.4636 7.7798L26.9002 7.3682ZM25.2599 6.644C24.6147 6.644 24.0659 6.90861 23.629 7.41375L24.0828 7.80624C24.4139 7.42339 24.8011 7.244 25.2599 7.244V6.644ZM23.6259 7.41733C23.1945 7.93229 22.9979 8.62737 22.9979 9.464H23.5979C23.5979 8.71663 23.7733 8.17571 24.0859 7.80267L23.6259 7.41733ZM22.9979 9.464C22.9979 10.25 23.2052 10.9176 23.6444 11.4392L24.1034 11.0528C23.7746 10.6624 23.5979 10.142 23.5979 9.464H22.9979ZM23.647 11.4422C24.0839 11.9474 24.6327 12.212 25.2779 12.212V11.612C24.8191 11.612 24.4319 11.4326 24.1008 11.0498L23.647 11.4422ZM27.2939 1.574H29.9219V0.974H27.2939V1.574ZM29.6219 1.274V14H30.2219V1.274H29.6219ZM29.9219 13.7H27.2939V14.3H29.9219V13.7ZM27.5939 14V12.578H26.9939V14H27.5939ZM27.0367 12.4237C26.4801 13.3512 25.667 13.808 24.5579 13.808V14.408C25.8728 14.408 26.8837 13.8448 27.5512 12.7323L27.0367 12.4237ZM24.5579 13.808C23.4609 13.808 22.5948 13.3875 21.9325 12.5376L21.4593 12.9064C22.237 13.9045 23.279 14.408 24.5579 14.408V13.808ZM21.934 12.5395C21.2703 11.6733 20.9339 10.6352 20.9339 9.41H20.3339C20.3339 10.7528 20.7055 11.9227 21.4578 12.9045L21.934 12.5395ZM20.9339 9.41C20.9339 8.02169 21.2917 6.96683 21.9731 6.20851L21.5268 5.80749C20.7201 6.70517 20.3339 7.91831 20.3339 9.41H20.9339ZM21.9731 6.20851C22.6586 5.44555 23.5187 5.066 24.5759 5.066V4.466C23.3531 4.466 22.3292 4.91445 21.5268 5.80749L21.9731 6.20851ZM24.5759 5.066C25.6603 5.066 26.4697 5.51647 27.0388 6.43591L27.549 6.12009C26.8702 5.02353 25.8675 4.466 24.5759 4.466V5.066ZM27.5939 6.278V1.274H26.9939V6.278H27.5939ZM36.6058 10.256H36.9058V9.956H36.6058V10.256ZM34.7338 10.544L34.9212 10.7783V10.7783L34.7338 10.544ZM36.2998 11.858L36.0762 11.658L36.2998 11.858ZM32.3398 7.682H32.0398V8.23812L32.5046 7.93271L32.3398 7.682ZM32.3398 5.324L32.1919 5.06299L32.0398 5.14918V5.324H32.3398ZM38.3518 5.558L38.1528 5.78247L38.1552 5.78456L38.3518 5.558ZM39.3058 14V14.3H39.6058V14H39.3058ZM36.7318 14H36.4318V14.3H36.7318V14ZM36.7318 12.884H37.0318L36.4627 12.7515L36.7318 12.884ZM32.3758 13.298L32.1611 13.5076L32.1637 13.5101L32.3758 13.298ZM32.5918 9.374L32.7725 9.61346L32.7732 9.61293L32.5918 9.374ZM36.6058 8.636V8.936H36.9058V8.636H36.6058ZM36.6058 9.956H35.7598V10.556H36.6058V9.956ZM35.7598 9.956C35.2771 9.956 34.8588 10.0599 34.5464 10.3097L34.9212 10.7783C35.0889 10.6441 35.3545 10.556 35.7598 10.556V9.956ZM34.5464 10.3097C34.2373 10.557 34.0738 10.8883 34.0738 11.282H34.6738C34.6738 11.0757 34.7504 10.915 34.9212 10.7783L34.5464 10.3097ZM34.0738 11.282C34.0738 11.6466 34.1813 11.9711 34.4431 12.1975C34.6966 12.4166 35.0454 12.5 35.4358 12.5V11.9C35.1182 11.9 34.936 11.8304 34.8355 11.7435C34.7433 11.6639 34.6738 11.5294 34.6738 11.282H34.0738ZM35.4358 12.5C35.8732 12.5 36.2504 12.3632 36.5234 12.058L36.0762 11.658C35.9412 11.8088 35.7425 11.9 35.4358 11.9V12.5ZM36.5234 12.058C36.7897 11.7604 36.9058 11.3695 36.9058 10.922H36.3058C36.3058 11.2665 36.2179 11.4996 36.0762 11.658L36.5234 12.058ZM36.9058 10.922V10.256H36.3058V10.922H36.9058ZM32.6398 7.682V5.324H32.0398V7.682H32.6398ZM32.4877 5.58501C33.1425 5.21398 34.1201 5.012 35.4538 5.012V4.412C34.0755 4.412 32.9772 4.61802 32.1919 5.06299L32.4877 5.58501ZM35.4538 5.012C36.7136 5.012 37.5942 5.28713 38.1528 5.78246L38.5509 5.33354C37.8374 4.70087 36.786 4.412 35.4538 4.412V5.012ZM38.1552 5.78456C38.7026 6.25969 39.0058 7.02511 39.0058 8.15H39.6058C39.6058 6.92289 39.273 5.96031 38.5485 5.33143L38.1552 5.78456ZM39.0058 8.15V14H39.6058V8.15H39.0058ZM39.3058 13.7H36.7318V14.3H39.3058V13.7ZM37.0318 14V12.884H36.4318V14H37.0318ZM36.4627 12.7515C36.1448 13.3972 35.5178 13.754 34.4638 13.754V14.354C35.6658 14.354 36.5508 13.9308 37.001 13.0165L36.4627 12.7515ZM34.4638 13.754C33.6347 13.754 33.0226 13.5205 32.5879 13.0859L32.1637 13.5101C32.737 14.0835 33.5169 14.354 34.4638 14.354V13.754ZM32.5905 13.0884C32.1575 12.6449 31.9378 12.092 31.9378 11.408H31.3378C31.3378 12.236 31.6102 12.9431 32.1611 13.5076L32.5905 13.0884ZM31.9378 11.408C31.9378 10.6153 32.2199 10.0306 32.7725 9.61346L32.4111 9.13454C31.6918 9.67743 31.3378 10.4487 31.3378 11.408H31.9378ZM32.7732 9.61293C33.3474 9.17702 34.2255 8.936 35.4538 8.936V8.336C34.1621 8.336 33.1323 8.58698 32.4104 9.13507L32.7732 9.61293ZM35.4538 8.936H36.6058V8.336H35.4538V8.936ZM36.9058 8.636V8.006H36.3058V8.636H36.9058ZM36.9058 8.006C36.9058 7.54924 36.7497 7.1628 36.4038 6.90234C36.0739 6.65395 35.6148 6.554 35.0758 6.554V7.154C35.5568 7.154 35.8628 7.24605 36.0429 7.38166C36.2069 7.5052 36.3058 7.69476 36.3058 8.006H36.9058ZM35.0758 6.554C34.0319 6.554 33.0629 6.84787 32.1751 7.43129L32.5046 7.93271C33.2967 7.41213 34.1517 7.154 35.0758 7.154V6.554ZM43.9071 13.856L44.1841 13.9712L44.2306 13.8592L44.1863 13.7463L43.9071 13.856ZM40.3791 4.874V4.574H39.9389L40.0998 4.98368L40.3791 4.874ZM43.2411 4.874L43.5244 4.77537L43.4543 4.574H43.2411V4.874ZM44.2311 7.718L44.5147 7.62035L44.5144 7.61937L44.2311 7.718ZM44.8431 9.608L44.5553 9.69302L44.5572 9.69896L44.8431 9.608ZM45.2031 10.904L44.9097 10.9669L45.4923 10.9835L45.2031 10.904ZM46.1751 7.718L45.889 7.62749L45.8888 7.62816L46.1751 7.718ZM47.0751 4.874V4.574H46.8553L46.789 4.78349L47.0751 4.874ZM49.7751 4.874L50.0562 4.97858L50.2067 4.574H49.7751V4.874ZM46.4811 13.73L46.1999 13.6254L46.1998 13.6257L46.4811 13.73ZM41.1351 17.474H40.8351V17.7199L41.0762 17.7682L41.1351 17.474ZM41.1351 15.386L41.2078 15.095L40.8351 15.0018V15.386H41.1351ZM44.1863 13.7463L40.6583 4.76432L40.0998 4.98368L43.6278 13.9657L44.1863 13.7463ZM40.3791 5.174H43.2411V4.574H40.3791V5.174ZM42.9577 4.97262L43.9477 7.81663L44.5144 7.61937L43.5244 4.77537L42.9577 4.97262ZM43.9474 7.81565C44.1985 8.545 44.401 9.17056 44.5554 9.693L45.1308 9.523C44.9731 8.98944 44.7676 8.355 44.5147 7.62035L43.9474 7.81565ZM44.5572 9.69896C44.7262 10.23 44.8233 10.5637 44.8557 10.7149L45.4424 10.5891C45.4028 10.4043 45.296 10.042 45.1289 9.51704L44.5572 9.69896ZM44.8557 10.7149L44.9097 10.9669L45.4964 10.8411L45.4424 10.5891L44.8557 10.7149ZM45.4923 10.9835C45.6226 10.5098 45.9449 9.45323 46.4613 7.80784L45.8888 7.62816C45.3733 9.27077 45.0475 10.3382 44.9138 10.8245L45.4923 10.9835ZM46.4611 7.80851L47.3611 4.96451L46.789 4.78349L45.889 7.62749L46.4611 7.80851ZM47.0751 5.174H49.7751V4.574H47.0751V5.174ZM49.4939 4.76941L46.1999 13.6254L46.7622 13.8346L50.0562 4.97858L49.4939 4.76941ZM46.1998 13.6257C45.7363 14.8753 45.1607 15.7852 44.4869 16.3807C43.8192 16.9709 43.0425 17.264 42.1431 17.264V17.864C43.1876 17.864 44.106 17.5181 44.8842 16.8303C45.6564 16.1478 46.2778 15.1407 46.7623 13.8343L46.1998 13.6257ZM42.1431 17.264C41.7868 17.264 41.4709 17.2352 41.1939 17.1798L41.0762 17.7682C41.3992 17.8328 41.7554 17.864 42.1431 17.864V17.264ZM41.4351 17.474V15.386H40.8351V17.474H41.4351ZM41.0623 15.677C41.2802 15.7315 41.5088 15.758 41.7471 15.758V15.158C41.5534 15.158 41.374 15.1365 41.2078 15.095L41.0623 15.677ZM41.7471 15.758C42.3019 15.758 42.7954 15.608 43.2128 15.2985C43.6272 14.9911 43.9472 14.541 44.1841 13.9712L43.63 13.7408C43.4229 14.239 43.1609 14.5899 42.8554 14.8165C42.5528 15.041 42.1882 15.158 41.7471 15.158V15.758ZM56.7091 5.144H57.0091V4.94161L56.8215 4.86583L56.7091 5.144ZM56.7091 7.394L56.5577 7.65296L57.0091 7.91702V7.394H56.7091ZM53.7571 7.034L53.9317 7.27837L53.9425 7.26989L53.7571 7.034ZM53.5951 7.808L53.3407 7.967V7.967L53.5951 7.808ZM53.8831 8.078L53.722 8.33129L53.732 8.33713L53.8831 8.078ZM54.2791 8.312L54.1248 8.56925L54.1394 8.57804L54.155 8.58511L54.2791 8.312ZM54.8011 8.546L54.6793 8.8202L54.6847 8.82249L54.8011 8.546ZM55.3411 8.798L55.1975 9.06141L55.2024 9.06398L55.3411 8.798ZM56.6731 9.806L56.4473 10.0036L56.4505 10.0071L56.6731 9.806ZM56.2051 13.334L56.3866 13.5729L56.2051 13.334ZM50.8591 13.514H50.5591V13.6994L50.725 13.7823L50.8591 13.514ZM50.8591 11.174L51.0305 10.9277L50.5591 10.5999V11.174H50.8591ZM54.3871 11.102L54.6415 10.943L54.3871 11.102ZM53.6851 10.634L53.551 10.9023L53.5621 10.9079L53.5737 10.9125L53.6851 10.634ZM53.1631 10.4L53.2796 10.1235L53.1631 10.4ZM52.6411 10.166L52.7753 9.89762L52.7699 9.89504L52.6411 10.166ZM51.8311 5.504L51.656 5.26045L51.6539 5.26194L51.8311 5.504ZM56.4091 5.144V7.394H57.0091V5.144H56.4091ZM56.8606 7.13504C56.1719 6.7322 55.3739 6.536 54.4771 6.536V7.136C55.2843 7.136 55.9744 7.3118 56.5577 7.65296L56.8606 7.13504ZM54.4771 6.536C54.1278 6.536 53.8121 6.60927 53.5718 6.7981L53.9425 7.26989C54.0382 7.19473 54.2025 7.136 54.4771 7.136V6.536ZM53.5828 6.78988C53.3429 6.96122 53.2051 7.20487 53.2051 7.502H53.8051C53.8051 7.41513 53.8354 7.34678 53.9315 7.27812L53.5828 6.78988ZM53.2051 7.502C53.2051 7.669 53.2524 7.82573 53.3407 7.967L53.8495 7.649C53.8178 7.59827 53.8051 7.551 53.8051 7.502H53.2051ZM53.3407 7.967C53.4317 8.11255 53.5659 8.23172 53.7221 8.3311L54.0442 7.8249C53.9364 7.75628 53.8786 7.69545 53.8495 7.649L53.3407 7.967ZM53.732 8.33713C53.8751 8.42062 54.006 8.49799 54.1248 8.56925L54.4335 8.05475C54.3123 7.98201 54.1792 7.90337 54.0343 7.81887L53.732 8.33713ZM54.155 8.58511C54.2881 8.6456 54.4629 8.72398 54.6793 8.82014L54.923 8.27186C54.7073 8.17601 54.5342 8.0984 54.4033 8.03889L54.155 8.58511ZM54.6847 8.82249C54.9085 8.91672 55.0781 8.99627 55.1975 9.06137L55.4848 8.53463C55.3401 8.45573 55.1498 8.36728 54.9176 8.26951L54.6847 8.82249ZM55.2024 9.06398C55.7284 9.33844 56.1406 9.65298 56.4474 10.0036L56.8989 9.60845C56.5337 9.19102 56.0579 8.83356 55.4799 8.53202L55.2024 9.06398ZM56.4505 10.0071C56.7283 10.3146 56.8771 10.7187 56.8771 11.246H57.4771C57.4771 10.5973 57.29 10.0414 56.8958 9.60491L56.4505 10.0071ZM56.8771 11.246C56.8771 12.0636 56.5883 12.6664 56.0237 13.0951L56.3866 13.5729C57.1179 13.0176 57.4771 12.2284 57.4771 11.246H56.8771ZM56.0237 13.0951C55.4422 13.5366 54.6541 13.772 53.6311 13.772V14.372C54.7442 14.372 55.6721 14.1154 56.3866 13.5729L56.0237 13.0951ZM53.6311 13.772C52.5591 13.772 51.6843 13.5912 50.9933 13.2457L50.725 13.7823C51.522 14.1808 52.4952 14.372 53.6311 14.372V13.772ZM51.1591 13.514V11.174H50.5591V13.514H51.1591ZM50.6878 11.4203C51.5613 12.0279 52.4963 12.338 53.4871 12.338V11.738C52.63 11.738 51.813 11.4721 51.0305 10.9277L50.6878 11.4203ZM53.4871 12.338C53.8393 12.338 54.1548 12.2837 54.3907 12.1336C54.6496 11.9688 54.7771 11.7115 54.7771 11.408H54.1771C54.1771 11.5245 54.1397 11.5822 54.0686 11.6274C53.9745 11.6873 53.795 11.738 53.4871 11.738V12.338ZM54.7771 11.408C54.7771 11.241 54.7298 11.0843 54.6415 10.943L54.1327 11.261C54.1644 11.3117 54.1771 11.359 54.1771 11.408H54.7771ZM54.6415 10.943C54.5464 10.7908 54.3999 10.6707 54.2323 10.5729L53.93 11.0911C54.0503 11.1613 54.1078 11.2212 54.1327 11.261L54.6415 10.943ZM54.2323 10.5729C54.079 10.4834 53.9335 10.4102 53.7966 10.3555L53.5737 10.9125C53.6768 10.9538 53.7953 11.0126 53.93 11.0911L54.2323 10.5729ZM53.8193 10.3657C53.6905 10.3013 53.5095 10.2203 53.2796 10.1235L53.0467 10.6765C53.2728 10.7717 53.4398 10.8467 53.551 10.9023L53.8193 10.3657ZM53.2796 10.1235C53.0535 10.0283 52.8865 9.95329 52.7753 9.89767L52.507 10.4343C52.6357 10.4987 52.8168 10.5797 53.0467 10.6765L53.2796 10.1235ZM52.7699 9.89504C52.1983 9.62337 51.7895 9.29326 51.5233 8.91373C51.2589 8.53685 51.1231 8.09428 51.1231 7.574H50.5231C50.5231 8.20572 50.6904 8.77115 51.032 9.25827C51.3718 9.74273 51.872 10.1326 52.5124 10.437L52.7699 9.89504ZM51.1231 7.574C51.1231 6.77424 51.4193 6.17732 52.0084 5.74606L51.6539 5.26194C50.899 5.81468 50.5231 6.59776 50.5231 7.574H51.1231ZM52.0063 5.74754C52.6299 5.299 53.4114 5.066 54.3691 5.066V4.466C53.3109 4.466 52.4004 4.725 51.656 5.26046L52.0063 5.74754ZM54.3691 5.066C55.2806 5.066 56.0195 5.18904 56.5968 5.42217L56.8215 4.86583C56.1508 4.59496 55.3296 4.466 54.3691 4.466V5.066ZM66.223 11.732H65.923V12.032H66.223V11.732ZM70.057 10.688L69.8317 10.4899L69.8298 10.4921L70.057 10.688ZM70.057 5.144L69.837 5.34799L69.8389 5.34999L70.057 5.144ZM66.223 4.154V3.854H65.923V4.154H66.223ZM63.379 1.868V1.568H63.079V1.868H63.379ZM72.037 3.56L71.8282 3.77544L71.8294 3.77655L72.037 3.56ZM72.055 12.326L71.8462 12.1105L71.8451 12.1116L72.055 12.326ZM63.379 14H63.079V14.3H63.379V14ZM66.223 12.032H67.483V11.432H66.223V12.032ZM67.483 12.032C68.6658 12.032 69.6151 11.66 70.2842 10.8839L69.8298 10.4921C69.2989 11.108 68.5322 11.432 67.483 11.432V12.032ZM70.2823 10.8861C70.9578 10.1179 71.275 9.05367 71.275 7.736H70.675C70.675 8.96233 70.3802 9.86615 69.8317 10.4899L70.2823 10.8861ZM71.275 7.736C71.275 6.59655 70.9504 5.65303 70.2751 4.93801L69.8389 5.34999C70.3876 5.93097 70.675 6.71545 70.675 7.736H71.275ZM70.277 4.94002C69.5951 4.20465 68.643 3.854 67.465 3.854V4.454C68.519 4.454 69.2949 4.76335 69.837 5.34798L70.277 4.94002ZM67.465 3.854H66.223V4.454H67.465V3.854ZM65.923 4.154V11.732H66.523V4.154H65.923ZM63.379 2.168H67.555V1.568H63.379V2.168ZM67.555 2.168C69.3117 2.168 70.7274 2.70863 71.8282 3.77544L72.2458 3.34456C71.0186 2.15537 69.4463 1.568 67.555 1.568V2.168ZM71.8294 3.77655C72.9321 4.83382 73.483 6.14659 73.483 7.736H74.083C74.083 5.98941 73.4699 4.51818 72.2446 3.34345L71.8294 3.77655ZM73.483 7.736C73.483 9.61725 72.9279 11.0627 71.8462 12.1105L72.2637 12.5415C73.4861 11.3573 74.083 9.74275 74.083 7.736H73.483ZM71.8451 12.1116C70.7712 13.1629 69.3397 13.7 67.519 13.7V14.3C69.4662 14.3 71.0588 13.7211 72.2648 12.5404L71.8451 12.1116ZM67.519 13.7H63.379V14.3H67.519V13.7ZM63.679 14V1.868H63.079V14H63.679ZM80.8501 8.6V8.9H81.1501V8.6H80.8501ZM80.8501 8.384H81.1501V8.37222L81.1492 8.36048L80.8501 8.384ZM78.3301 7.25L78.534 7.47017L78.5382 7.4661L78.3301 7.25ZM77.6821 8.6L77.3868 8.54685L77.3233 8.9H77.6821V8.6ZM82.7401 11.282H83.0401V10.6799L82.5594 11.0425L82.7401 11.282ZM82.7401 13.478L82.9043 13.7291L83.0401 13.6403V13.478H82.7401ZM76.3681 12.794L76.15 13.0001L76.153 13.0031L76.3681 12.794ZM76.3321 6.026L76.1184 5.81542L76.1184 5.81544L76.3321 6.026ZM82.2361 5.864L82.0222 6.07435L82.024 6.07613L82.2361 5.864ZM83.1541 10.472V10.772H83.4143L83.4511 10.5144L83.1541 10.472ZM77.7901 10.472V10.172H77.3644L77.5076 10.5729L77.7901 10.472ZM78.7261 11.642L78.8845 11.3872L78.7261 11.642ZM81.1501 8.6V8.384H80.5501V8.6H81.1501ZM81.1492 8.36048C81.1045 7.79309 80.9551 7.31954 80.6617 6.98477C80.3594 6.6398 79.9396 6.482 79.4461 6.482V7.082C79.8046 7.082 80.0448 7.1912 80.2105 7.38023C80.3851 7.57946 80.5116 7.90691 80.551 8.40752L81.1492 8.36048ZM79.4461 6.482C78.9426 6.482 78.4975 6.67228 78.122 7.0339L78.5382 7.4661C78.8107 7.20372 79.1096 7.082 79.4461 7.082V6.482ZM78.1263 7.02987C77.7393 7.38822 77.5021 7.90669 77.3868 8.54685L77.9773 8.65315C78.0781 8.09331 78.2729 7.71178 78.5339 7.47013L78.1263 7.02987ZM77.6821 8.9H80.8501V8.3H77.6821V8.9ZM82.4401 11.282V13.478H83.0401V11.282H82.4401ZM82.5759 13.2269C82.0246 13.5874 81.141 13.79 79.8781 13.79V14.39C81.1832 14.39 82.2076 14.1846 82.9043 13.7291L82.5759 13.2269ZM79.8781 13.79C78.438 13.79 77.3535 13.3772 76.5832 12.5849L76.153 13.0031C77.0627 13.9388 78.3181 14.39 79.8781 14.39V13.79ZM76.5861 12.5879C75.818 11.7752 75.4261 10.7305 75.4261 9.428H74.8261C74.8261 10.8615 75.2622 12.0608 76.1501 13.0001L76.5861 12.5879ZM75.4261 9.428C75.4261 8.03268 75.8109 6.98243 76.5458 6.23655L76.1184 5.81544C75.2453 6.70157 74.8261 7.91932 74.8261 9.428H75.4261ZM76.5458 6.23658C77.304 5.46718 78.2284 5.084 79.3381 5.084V4.484C78.0717 4.484 76.9922 4.92882 76.1184 5.81542L76.5458 6.23658ZM79.3381 5.084C80.4999 5.084 81.3822 5.42352 82.0222 6.07434L82.45 5.65366C81.674 4.86448 80.6243 4.484 79.3381 4.484V5.084ZM82.024 6.07613C82.6559 6.70803 82.9981 7.68024 82.9981 9.05H83.5981C83.5981 7.58776 83.2323 6.43597 82.4482 5.65187L82.024 6.07613ZM82.9981 9.05C82.9981 9.30232 82.9532 9.75722 82.8571 10.4296L83.4511 10.5144C83.547 9.84278 83.5981 9.34968 83.5981 9.05H82.9981ZM83.1541 10.172H77.7901V10.772H83.1541V10.172ZM77.5076 10.5729C77.7098 11.1391 78.0647 11.5841 78.5677 11.8968L78.8845 11.3872C78.4995 11.1479 78.2304 10.8129 78.0726 10.3711L77.5076 10.5729ZM78.5677 11.8968C79.0678 12.2076 79.6591 12.356 80.3281 12.356V11.756C79.7491 11.756 79.2724 11.6284 78.8845 11.3872L78.5677 11.8968ZM80.3281 12.356C81.3119 12.356 82.1805 12.0799 82.9208 11.5215L82.5594 11.0425C81.9316 11.5161 81.1923 11.756 80.3281 11.756V12.356ZM89.6917 10.256H89.9918V9.956H89.6917V10.256ZM87.8197 10.544L88.0072 10.7783V10.7783L87.8197 10.544ZM89.3857 11.858L89.1622 11.658L89.3857 11.858ZM85.4258 7.682H85.1257V8.23812L85.5905 7.93271L85.4258 7.682ZM85.4258 5.324L85.2778 5.06299L85.1257 5.14918V5.324H85.4258ZM91.4378 5.558L91.2387 5.78247L91.2411 5.78456L91.4378 5.558ZM92.3918 14V14.3H92.6917V14H92.3918ZM89.8177 14H89.5178V14.3H89.8177V14ZM89.8177 12.884H90.1178L89.5486 12.7515L89.8177 12.884ZM85.4618 13.298L85.2471 13.5076L85.2496 13.5101L85.4618 13.298ZM85.6777 9.374L85.8585 9.61346L85.8592 9.61293L85.6777 9.374ZM89.6917 8.636V8.936H89.9918V8.636H89.6917ZM89.6917 9.956H88.8457V10.556H89.6917V9.956ZM88.8457 9.956C88.3631 9.956 87.9447 10.0599 87.6323 10.3097L88.0072 10.7783C88.1748 10.6441 88.4404 10.556 88.8457 10.556V9.956ZM87.6323 10.3097C87.3232 10.557 87.1598 10.8883 87.1598 11.282H87.7598C87.7598 11.0757 87.8363 10.915 88.0072 10.7783L87.6323 10.3097ZM87.1598 11.282C87.1598 11.6466 87.2672 11.9711 87.5291 12.1975C87.7825 12.4166 88.1314 12.5 88.5218 12.5V11.9C88.2041 11.9 88.022 11.8304 87.9214 11.7435C87.8293 11.6639 87.7598 11.5294 87.7598 11.282H87.1598ZM88.5218 12.5C88.9591 12.5 89.3363 12.3632 89.6093 12.058L89.1622 11.658C89.0272 11.8088 88.8284 11.9 88.5218 11.9V12.5ZM89.6093 12.058C89.8756 11.7604 89.9918 11.3695 89.9918 10.922H89.3918C89.3918 11.2665 89.3039 11.4996 89.1622 11.658L89.6093 12.058ZM89.9918 10.922V10.256H89.3918V10.922H89.9918ZM85.7258 7.682V5.324H85.1257V7.682H85.7258ZM85.5737 5.58501C86.2284 5.21398 87.2061 5.012 88.5397 5.012V4.412C87.1614 4.412 86.0631 4.61802 85.2778 5.06299L85.5737 5.58501ZM88.5397 5.012C89.7995 5.012 90.6801 5.28713 91.2387 5.78246L91.6368 5.33354C90.9234 4.70087 89.872 4.412 88.5397 4.412V5.012ZM91.2411 5.78456C91.7885 6.25969 92.0918 7.02511 92.0918 8.15H92.6917C92.6917 6.92289 92.359 5.96031 91.6344 5.33143L91.2411 5.78456ZM92.0918 8.15V14H92.6917V8.15H92.0918ZM92.3918 13.7H89.8177V14.3H92.3918V13.7ZM90.1178 14V12.884H89.5178V14H90.1178ZM89.5486 12.7515C89.2307 13.3972 88.6037 13.754 87.5498 13.754V14.354C88.7518 14.354 89.6368 13.9308 90.0869 13.0165L89.5486 12.7515ZM87.5498 13.754C86.7206 13.754 86.1085 13.5205 85.6739 13.0859L85.2496 13.5101C85.823 14.0835 86.6029 14.354 87.5498 14.354V13.754ZM85.6764 13.0884C85.2434 12.6449 85.0238 12.092 85.0238 11.408H84.4238C84.4238 12.236 84.6961 12.9431 85.2471 13.5076L85.6764 13.0884ZM85.0238 11.408C85.0238 10.6153 85.3058 10.0306 85.8585 9.61346L85.497 9.13454C84.7777 9.67743 84.4238 10.4487 84.4238 11.408H85.0238ZM85.8592 9.61293C86.4333 9.17702 87.3115 8.936 88.5397 8.936V8.336C87.248 8.336 86.2182 8.58698 85.4963 9.13507L85.8592 9.61293ZM88.5397 8.936H89.6917V8.336H88.5397V8.936ZM89.9918 8.636V8.006H89.3918V8.636H89.9918ZM89.9918 8.006C89.9918 7.54924 89.8356 7.1628 89.4897 6.90234C89.1598 6.65395 88.7008 6.554 88.1618 6.554V7.154C88.6427 7.154 88.9487 7.24605 89.1288 7.38166C89.2929 7.5052 89.3918 7.69476 89.3918 8.006H89.9918ZM88.1618 6.554C87.1179 6.554 86.1488 6.84787 85.261 7.43129L85.5905 7.93271C86.3827 7.41213 87.2376 7.154 88.1618 7.154V6.554ZM94.545 14H94.245V14.3H94.545V14ZM94.545 1.274V0.974H94.245V1.274H94.545ZM97.173 1.274H97.473V0.974H97.173V1.274ZM97.173 14V14.3H97.473V14H97.173ZM94.845 14V1.274H94.245V14H94.845ZM94.545 1.574H97.173V0.974H94.545V1.574ZM96.873 1.274V14H97.473V1.274H96.873ZM97.173 13.7H94.545V14.3H97.173V13.7Z" fill="#0E293F"/>
</svg>
